# xmcd CD database file
#
# Track frame offsets:
#	150
#	12272
#	30815
#	42606
#	68023
#	85918
#	107426
#	124027
#	139775
#	161984
#
# Disc length: 2209 seconds
#
# Revision: 0
# Processed by: cddbd v1.5PL3 Copyright (c) Steve Scherf et al.
# Submitted via: CDex 1.51
#
DISCID=7a089f0a
DTITLE=Charlie O. and the House Rockers - Leaving Mississippi
DYEAR=2000
DGENRE=Blues
TTITLE0=Leaving Mississippi
TTITLE1=The Thrill Is Gone
TTITLE2=Ice Cream Man
TTITLE3=End Of The Innocence
TTITLE4=You Weren't Meant For Me
TTITLE5=Pretzel Logic
TTITLE6=Rosie
TTITLE7=Independence Day
TTITLE8=How Blue Can You Get
TTITLE9=Tender Vittles
EXTD=YEAR: 2000
EXTT0=
EXTT1=
EXTT2=
EXTT3=
EXTT4=
EXTT5=
EXTT6=
EXTT7=
EXTT8=
EXTT9=
PLAYORDER=
